<svg xmlns="http://www.w3.org/2000/svg" width="180.495" height="120.547" viewBox="0 0 180.495 120.547"><path id="Path_973" data-name="Path 973" d="M101.476,198.739c-22.91-5.378-42.85-23.239-56.009-42.062-4.344-6.215-10.8-16.909-14.147-27.573-8.059-5.522-11.955-15.413-13.3-24.815C14.988,83.207,20.6,54.36,39.022,41.262a42.769,42.769,0,0,1-13.088-.856,1.346,1.346,0,0,1,0-2.576c9.454-2.591,19.671-1.589,29.218-4.414,2.966-.878,4.677,2.321,3.639,4.733-3.013,7-4.96,13.231-5.542,20.876-.333,4.373-6.886,4.5-6.9,0a46.886,46.886,0,0,1,2.6-15.527c-19.01,11.2-25.81,33.191-24.42,55.166.367,5.8,1.677,12.291,4.622,17.544.106-7.437,3.208-13.8,11.57-17.167,18.781-7.554,34.127,18.88,17.433,30.7-5.116,3.623-11.805,4.469-17.952,3.142a113.259,113.259,0,0,0,13.708,24.292c12.9,17.544,29.972,28.738,48.351,39.712A1.02,1.02,0,0,1,101.476,198.739Zm-60.4-72.931c4.149,1.034,9.208.881,12.81-1.679,5.687-4.042,5.617-12.628.356-16.991-5.909-4.9-14.939-1.723-17.308,5.425-1.238,3.738-.754,7.871.291,11.789A17.715,17.715,0,0,0,41.079,125.808Z" transform="translate(189.796 -24.283) rotate(77)"></path></svg>