<svg xmlns="http://www.w3.org/2000/svg" xmlns:xlink="http://www.w3.org/1999/xlink" width="71.172913mm" height="40.534164mm" viewBox="0.000000 0.000000 269.000000 153.199997"><g transform="matrix(1.000000,0.000000,0.000000,1.000000,0.000000,0.000000)"><path d="M-350.100006 -1135.900024 L-324.700012 -1135.900024 L-324.700012 -1131.200073 L-334.700012 -1131.200073 L-334.700012 -1104.500122 L-340.200012 -1104.500122 L-340.200012 -1131.200073 L-350.200012 -1131.200073 L-350.100006 -1135.900024 L-350.100006 -1135.900024 Z M-325.700012 -1127.199951 L-321 -1127.199951 L-321 -1122.799927 L-320.899994 -1122.799927 C-320.699982 -1123.399902 -320.399994 -1124.099976 -320 -1124.599976 C-319.600006 -1125.199951 -319.100006 -1125.699951 -318.500000 -1126.199951 C-317.899994 -1126.699951 -317.200012 -1127.099976 -316.500000 -1127.399902 C-315.799988 -1127.699951 -315 -1127.799927 -314.299988 -1127.799927 C-313.699982 -1127.799927 -313.299988 -1127.799927 -313.099976 -1127.799927 C-312.899963 -1127.799927 -312.699982 -1127.699951 -312.399963 -1127.699951 L-312.399963 -1122.899902 C-312.799957 -1122.999878 -313.099976 -1122.999878 -313.499969 -1123.099854 C-313.899963 -1123.099854 -314.199982 -1123.199829 -314.599976 -1123.199829 C-315.399963 -1123.199829 -316.199982 -1122.999878 -316.999969 -1122.699829 C-317.799957 -1122.399780 -318.399963 -1121.799805 -318.999969 -1121.199829 C-319.599976 -1120.499878 -319.999969 -1119.699829 -320.299957 -1118.799805 C-320.599945 -1117.699829 -320.799957 -1116.599854 -320.799957 -1115.499756 L-320.799957 -1104.699707 L-325.799957 -1104.699707 L-325.700012 -1127.199951 L-325.700012 -1127.199951 Z M-289.399994 -1104.500000 L-294.299988 -1104.500000 L-294.299988 -1107.699951 L-294.399994 -1107.699951 C-295 -1106.500000 -296 -1105.599976 -297.100006 -1105 C-298.200012 -1104.300049 -299.500000 -1104 -300.800018 -1104 C-303.200012 -1103.800049 -305.500031 -1104.599976 -307.300018 -1106.199951 C-308.800018 -1108.099976 -309.500031 -1110.500000 -309.300018 -1112.899902 L-309.300018 -1127.299927 L-304.300018 -1127.299927 L-304.300018 -1113.399902 C-304.500031 -1111.899902 -304.000031 -1110.399902 -303.100006 -1109.199951 C-302.300018 -1108.299927 -301.100006 -1107.899902 -299.899994 -1108 C-299 -1108 -298.100006 -1108.099976 -297.299988 -1108.500000 C-296.599976 -1108.800049 -296 -1109.199951 -295.599976 -1109.800049 C-295.099976 -1110.400024 -294.799988 -1111 -294.699982 -1111.800049 C-294.499969 -1112.600098 -294.399994 -1113.400024 -294.399994 -1114.300049 L-294.399994 -1127.500000 L-289.399994 -1127.500000 L-289.399994 -1104.500000 Z M-280.899994 -1111.699951 C-280.899994 -1110.500000 -280.299988 -1109.299927 -279.199982 -1108.599976 C-278.099976 -1108 -276.899994 -1107.699951 -275.699982 -1107.699951 C-275.199982 -1107.699951 -274.599976 -1107.699951 -274.099976 -1107.799927 C-273.499969 -1107.899902 -272.999969 -1107.999878 -272.399963 -1108.199951 C-271.899963 -1108.399902 -271.399963 -1108.699951 -271.099976 -1109.099976 C-270.799988 -1109.500000 -270.599976 -1110.099976 -270.599976 -1110.699951 C-270.599976 -1111.299927 -270.899963 -1111.899902 -271.299988 -1112.299927 C-271.799988 -1112.699951 -272.399994 -1113.099976 -273 -1113.299927 C-273.799988 -1113.599976 -274.600006 -1113.799927 -275.299988 -1113.899902 C-276.199982 -1114.099854 -277.099976 -1114.299927 -278 -1114.499878 C-278.899994 -1114.699829 -279.799988 -1114.999878 -280.700012 -1115.299927 C-281.500000 -1115.599976 -282.300018 -1115.999878 -283 -1116.499878 C-283.700012 -1116.999878 -284.299988 -1117.599854 -284.600006 -1118.399902 C-285 -1119.299927 -285.300018 -1120.299927 -285.200012 -1121.299927 C-285.200012 -1122.399902 -284.900024 -1123.499878 -284.300018 -1124.399902 C-283.700012 -1125.199951 -282.900024 -1125.899902 -282.000031 -1126.399902 C-281.000031 -1126.899902 -280.000031 -1127.299927 -278.900024 -1127.499878 C-277.800018 -1127.699829 -276.800018 -1127.799927 -275.700012 -1127.799927 C-274.600006 -1127.799927 -273.400024 -1127.699951 -272.300018 -1127.399902 C-271.300018 -1127.199951 -270.300018 -1126.799927 -269.400024 -1126.199951 C-268.500031 -1125.599976 -267.800018 -1124.899902 -267.200012 -1124 C-266.600006 -1123 -266.200012 -1121.900024 -266.100006 -1120.800049 L-271.300018 -1120.800049 C-271.400024 -1121.800049 -272.000031 -1122.700073 -272.900024 -1123.200073 C-273.800018 -1123.600098 -274.800018 -1123.800049 -275.900024 -1123.800049 C-276.300018 -1123.800049 -276.700012 -1123.800049 -277.200012 -1123.700073 C-277.700012 -1123.600098 -278.100006 -1123.500122 -278.600006 -1123.400024 C-279 -1123.200073 -279.399994 -1123 -279.700012 -1122.700073 C-280 -1122.400024 -280.200012 -1121.900024 -280.100006 -1121.500122 C-280.100006 -1120.900146 -279.899994 -1120.400146 -279.500000 -1120.000122 C-279 -1119.600098 -278.399994 -1119.300171 -277.799988 -1119.100098 C-277 -1118.800049 -276.199982 -1118.600098 -275.500000 -1118.500122 C-274.600006 -1118.300171 -273.700012 -1118.100098 -272.799988 -1117.900146 C-271.899994 -1117.700195 -271 -1117.400146 -270.099976 -1117.100098 C-269.299988 -1116.800049 -268.499969 -1116.400146 -267.799988 -1115.900146 C-267.099976 -1115.400146 -266.599976 -1114.800171 -266.099976 -1114.000122 C-265.599976 -1113.100098 -265.399963 -1112.200073 -265.499969 -1111.200073 C-265.499969 -1110.000122 -265.799957 -1108.800049 -266.399963 -1107.800049 C-266.999969 -1106.900024 -267.799957 -1106.100098 -268.799957 -1105.500000 C-269.799957 -1104.900024 -270.899963 -1104.500000 -272.099945 -1104.199951 C-273.299957 -1103.899902 -274.499939 -1103.799927 -275.699951 -1103.799927 C-276.999939 -1103.799927 -278.399963 -1103.899902 -279.699951 -1104.299927 C-280.799957 -1104.599976 -281.899963 -1105.099976 -282.899963 -1105.799927 C-283.799957 -1106.499878 -284.499969 -1107.299927 -284.999969 -1108.299927 C-285.499969 -1109.399902 -285.799957 -1110.599976 -285.799957 -1111.799927 L-280.899994 -1111.699951 L-280.899994 -1111.699951 Z M-264.299988 -1127.199951 L-260.500000 -1127.199951 L-260.500000 -1134 L-255.500000 -1134 L-255.500000 -1127.199951 L-251 -1127.199951 L-251 -1123.500000 L-255.500000 -1123.500000 L-255.500000 -1111.400024 C-255.500000 -1110.900024 -255.500000 -1110.500000 -255.399994 -1110 C-255.399994 -1109.699951 -255.299988 -1109.300049 -255.099991 -1109 C-254.899994 -1108.699951 -254.699997 -1108.500000 -254.399994 -1108.400024 C-254 -1108.200073 -253.500000 -1108.200073 -253.099991 -1108.200073 C-252.699997 -1108.200073 -252.399994 -1108.200073 -251.999985 -1108.200073 C-251.599991 -1108.200073 -251.299988 -1108.300049 -250.899979 -1108.400024 L-250.899979 -1104.500000 C-251.499985 -1104.400024 -251.999985 -1104.400024 -252.499985 -1104.300049 C-252.999985 -1104.200073 -253.599991 -1104.200073 -254.099991 -1104.200073 C-255.199997 -1104.200073 -256.299988 -1104.300049 -257.299988 -1104.600098 C-258 -1104.800049 -258.699982 -1105.200073 -259.199982 -1105.700073 C-259.699982 -1106.200073 -259.999969 -1106.800049 -260.099976 -1107.500122 C-260.299988 -1108.300171 -260.399963 -1109.200073 -260.399963 -1110.000122 L-260.399963 -1123.400146 L-264.199951 -1123.400146 L-264.299988 -1127.199951 L-264.299988 -1127.199951 Z M-247.500000 -1127.199951 L-242.800003 -1127.199951 L-242.800003 -1124.099976 L-242.699997 -1124.099976 C-242.099991 -1125.400024 -241 -1126.400024 -239.800003 -1126.900024 C-238.500000 -1127.500000 -237.100006 -1127.800049 -235.699997 -1127.800049 C-234.099991 -1127.800049 -232.500000 -1127.500000 -231 -1126.900024 C-229.699997 -1126.300049 -228.600006 -1125.400024 -227.699997 -1124.300049 C-226.800003 -1123.200073 -226.099991 -1121.800049 -225.699997 -1120.400024 C-225.199997 -1118.900024 -225 -1117.300049 -225 -1115.700073 C-225 -1114.200073 -225.199997 -1112.700073 -225.600006 -1111.300049 C-226 -1109.900024 -226.600006 -1108.600098 -227.400009 -1107.500000 C-228.200012 -1106.400024 -229.200012 -1105.500000 -230.500015 -1104.900024 C-231.800018 -1104.200073 -233.300018 -1103.900024 -234.900009 -1103.900024 C-235.600006 -1103.900024 -236.400009 -1104 -237.100006 -1104.099976 C-237.800003 -1104.199951 -238.500000 -1104.400024 -239.200012 -1104.699951 C-239.900009 -1105 -240.500015 -1105.399902 -241.100006 -1105.799927 C-241.700012 -1106.299927 -242.100006 -1106.799927 -242.500000 -1107.399902 L-242.600006 -1107.399902 L-242.600006 -1095.999878 L-247.600006 -1095.999878 L-247.600006 -1127.199829 L-247.500000 -1127.199829 Z M-230 -1115.800049 C-230 -1116.800049 -230.100006 -1117.800049 -230.399994 -1118.800049 C-230.599991 -1119.700073 -231 -1120.600098 -231.599991 -1121.400024 C-232.099991 -1122.099976 -232.799988 -1122.700073 -233.599991 -1123.200073 C-236.099991 -1124.500122 -239.299988 -1123.900024 -241.099991 -1121.700073 C-242.199997 -1120.000122 -242.799988 -1117.900024 -242.699997 -1115.800049 C-242.699997 -1114.700073 -242.599991 -1113.600098 -242.300003 -1112.600098 C-242.100006 -1111.700073 -241.600006 -1110.800049 -241 -1110.100098 C-240.500000 -1109.400146 -239.800003 -1108.800049 -239 -1108.400146 C-237.199997 -1107.500122 -235.100006 -1107.600098 -233.399994 -1108.500122 C-232.599991 -1109.000122 -232 -1109.600098 -231.399994 -1110.300171 C-230.899994 -1111.100220 -230.500000 -1111.900146 -230.299988 -1112.800171 C-230.100006 -1113.800049 -230 -1114.800049 -230 -1115.800049 L-230 -1115.800049 Z M-221.100006 -1135.900024 L-216.100006 -1135.900024 L-216.100006 -1131.200073 L-221.100006 -1131.200073 L-221.100006 -1135.900024 Z M-221.100006 -1127.199951 L-216.100006 -1127.199951 L-216.100006 -1104.500000 L-221.100006 -1104.500000 L-221.100006 -1127.199951 Z M-211.600006 -1135.900024 L-206.600006 -1135.900024 L-206.600006 -1104.500000 L-211.600006 -1104.500000 L-211.600006 -1135.900024 Z M-191.300003 -1103.800049 C-193 -1103.800049 -194.600006 -1104.100098 -196.199997 -1104.700073 C-199 -1105.800049 -201.099991 -1108.100098 -202.099991 -1111.000122 C-202.599991 -1112.600098 -202.899994 -1114.200073 -202.899994 -1115.800171 C-202.899994 -1117.400146 -202.699997 -1119.000122 -202.099991 -1120.600220 C-201.599991 -1122.000244 -200.899994 -1123.300171 -199.899994 -1124.400269 C-198.899994 -1125.500244 -197.699997 -1126.300293 -196.299988 -1126.900269 C-193.199982 -1128.100220 -189.699982 -1128.100220 -186.599991 -1126.900269 C-183.799988 -1125.800293 -181.699997 -1123.500244 -180.699997 -1120.600220 C-180.199997 -1119.100220 -179.899994 -1117.400269 -179.899994 -1115.800171 C-179.899994 -1114.200195 -180.099991 -1112.500122 -180.699997 -1111.000122 C-181.199997 -1109.600098 -181.899994 -1108.300171 -182.899994 -1107.200073 C-183.899994 -1106.100098 -185.099991 -1105.300049 -186.500000 -1104.700073 C-187.899994 -1104.099976 -189.600006 -1103.800049 -191.300003 -1103.800049 L-191.300003 -1103.800049 Z M-191.300003 -1107.800049 C-190.300003 -1107.800049 -189.300003 -1108 -188.400009 -1108.500000 C-187.600006 -1109 -186.900009 -1109.599976 -186.400009 -1110.300049 C-185.900009 -1111.100098 -185.500015 -1112 -185.200012 -1112.900024 C-184.700012 -1114.800049 -184.700012 -1116.800049 -185.200012 -1118.700073 C-185.400009 -1119.600098 -185.800018 -1120.500122 -186.400009 -1121.300049 C-186.900009 -1122 -187.600006 -1122.700073 -188.400009 -1123.100098 C-190.200012 -1124.000122 -192.400009 -1124.000122 -194.200012 -1123.100098 C-195.000015 -1122.600098 -195.700012 -1122.000122 -196.200012 -1121.300049 C-196.700012 -1120.500000 -197.100006 -1119.600098 -197.400009 -1118.700073 C-197.900009 -1116.800049 -197.900009 -1114.800049 -197.400009 -1112.900024 C-197.200012 -1112 -196.800003 -1111.099976 -196.200012 -1110.300049 C-195.700012 -1109.500000 -195.000015 -1108.900024 -194.200012 -1108.500000 C-193.300003 -1108 -192.300003 -1107.800049 -191.300003 -1107.800049 L-191.300003 -1107.800049 Z M-178.300003 -1127.199951 L-174.500000 -1127.199951 L-174.500000 -1134 L-169.500000 -1134 L-169.500000 -1127.199951 L-165 -1127.199951 L-165 -1123.500000 L-169.500000 -1123.500000 L-169.500000 -1111.400024 C-169.500000 -1110.900024 -169.500000 -1110.500000 -169.399994 -1110 C-169.399994 -1109.699951 -169.299988 -1109.300049 -169.099991 -1109 C-168.899994 -1108.699951 -168.699997 -1108.500000 -168.399994 -1108.400024 C-168 -1108.200073 -167.500000 -1108.200073 -167.099991 -1108.200073 C-166.699997 -1108.200073 -166.399994 -1108.200073 -165.999985 -1108.200073 C-165.599991 -1108.200073 -165.299988 -1108.300049 -164.899979 -1108.400024 L-164.899979 -1104.500000 C-165.499985 -1104.400024 -165.999985 -1104.400024 -166.499985 -1104.300049 C-166.999985 -1104.200073 -167.599991 -1104.200073 -168.099991 -1104.200073 C-169.199997 -1104.200073 -170.299988 -1104.300049 -171.299988 -1104.600098 C-171.999985 -1104.800049 -172.699982 -1105.200073 -173.199982 -1105.700073 C-173.699982 -1106.200073 -173.999985 -1106.800049 -174.099976 -1107.500122 C-174.299973 -1108.300171 -174.399979 -1109.200073 -174.399979 -1110.000122 L-174.399979 -1123.400146 L-178.199982 -1123.400146 L-178.300003 -1127.199951 L-178.300003 -1127.199951 Z" stroke="none" stroke-width="1.000000" stroke-linecap="butt" stroke-linejoin="miter" stroke-miterlimit="4.000000" stroke-opacity="1.000000" transform="matrix(1.000000,0.000000,0.000000,1.000000,425.000000,1162.090942)" fill="#191919" fill-rule="nonzero" fill-opacity="1.000000"></path><path d="M-355.899994 -1135.900024 L-378.899994 -1135.900024 L-386 -1157.800049 L-393.100006 -1135.900024 L-416.100006 -1135.900024 L-397.500000 -1122.400024 L-404.600006 -1100.599976 L-386 -1114.099976 L-367.399994 -1100.599976 L-374.500000 -1122.400024 L-355.899994 -1135.900024 Z" stroke="none" stroke-width="1.000000" stroke-linecap="butt" stroke-linejoin="miter" stroke-miterlimit="4.000000" stroke-opacity="1.000000" transform="matrix(1.000000,0.000000,0.000000,1.000000,425.000000,1162.090942)" fill="#00b67a" fill-rule="nonzero" fill-opacity="1.000000"></path><path d="M-372.899994 -1117.400024 L-374.500000 -1122.300049 L-386 -1114 L-372.899994 -1117.400024 Z" stroke="none" stroke-width="1.000000" stroke-linecap="butt" stroke-linejoin="miter" stroke-miterlimit="4.000000" stroke-opacity="1.000000" transform="matrix(1.000000,0.000000,0.000000,1.000000,425.000000,1162.090942)" fill="#005128" fill-rule="nonzero" fill-opacity="1.000000"></path><rect x="0.000000" y="70.900002" width="51.000000" height="50.000000" rx="0.000000" ry="0.000000" stroke="none" stroke-width="1.000000" stroke-linecap="butt" stroke-linejoin="miter" stroke-miterlimit="4.000000" stroke-opacity="1.000000" transform="matrix(1.000000,0.000000,0.000000,1.000000,0.000000,0.000000)" fill="#00b67a" fill-rule="nonzero" fill-opacity="1.000000"></rect><rect x="55.000000" y="70.900002" width="50.000000" height="50.000000" rx="0.000000" ry="0.000000" stroke="none" stroke-width="1.000000" stroke-linecap="butt" stroke-linejoin="miter" stroke-miterlimit="4.000000" stroke-opacity="1.000000" transform="matrix(1.000000,0.000000,0.000000,1.000000,0.000000,0.000000)" fill="#00b67a" fill-rule="nonzero" fill-opacity="1.000000"></rect><rect x="109.000000" y="70.900002" width="51.000000" height="50.000000" rx="0.000000" ry="0.000000" stroke="none" stroke-width="1.000000" stroke-linecap="butt" stroke-linejoin="miter" stroke-miterlimit="4.000000" stroke-opacity="1.000000" transform="matrix(1.000000,0.000000,0.000000,1.000000,0.000000,0.000000)" fill="#00b67a" fill-rule="nonzero" fill-opacity="1.000000"></rect><rect x="164.000000" y="70.900002" width="51.000000" height="50.000000" rx="0.000000" ry="0.000000" stroke="none" stroke-width="1.000000" stroke-linecap="butt" stroke-linejoin="miter" stroke-miterlimit="4.000000" stroke-opacity="1.000000" transform="matrix(1.000000,0.000000,0.000000,1.000000,0.000000,0.000000)" fill="#00b67a" fill-rule="nonzero" fill-opacity="1.000000"></rect><rect x="244.000000" y="70.900002" width="25.000000" height="50.000000" rx="0.000000" ry="0.000000" stroke="none" stroke-width="1.000000" stroke-linecap="butt" stroke-linejoin="miter" stroke-miterlimit="4.000000" stroke-opacity="1.000000" transform="matrix(1.000000,0.000000,0.000000,1.000000,0.000000,0.000000)" fill="#dcdce6" fill-rule="nonzero" fill-opacity="1.000000"></rect><rect x="219.000000" y="70.900002" width="50.000000" height="50.000000" rx="0.000000" ry="0.000000" stroke="none" stroke-width="1.000000" stroke-linecap="butt" stroke-linejoin="miter" stroke-miterlimit="4.000000" stroke-opacity="1.000000" transform="matrix(1.000000,0.000000,0.000000,1.000000,0.000000,0.000000)" fill="#00b67a" fill-rule="nonzero" fill-opacity="1.000000"></rect><path d="M25.500000 104.400002 L33.200001 102.500000 L36.400002 112.400002 L25.500000 104.400002 Z M43.099998 91.699997 L29.600000 91.699997 L25.500000 79 L21.400000 91.699997 L7.800000 91.699997 L18.700001 99.599998 L14.600000 112.299995 L25.500000 104.399994 L32.200001 99.599991 L43.099998 91.699997 Z" stroke="none" stroke-width="1.000000" stroke-linecap="butt" stroke-linejoin="miter" stroke-miterlimit="4.000000" stroke-opacity="1.000000" transform="matrix(1.000000,0.000000,0.000000,1.000000,0.000000,0.000000)" fill="#ffffff" fill-rule="nonzero" fill-opacity="1.000000"></path><path d="M80.099998 104.400002 L87.799995 102.500000 L90.999992 112.400002 L80.099998 104.400002 Z M97.699997 91.699997 L84.199997 91.699997 L80.099998 79 L76 91.699997 L62.400002 91.699997 L73.300003 99.599998 L69.200005 112.299995 L80.100006 104.399994 L86.800003 99.599991 L97.699997 91.699997 Z" stroke="none" stroke-width="1.000000" stroke-linecap="butt" stroke-linejoin="miter" stroke-miterlimit="4.000000" stroke-opacity="1.000000" transform="matrix(1.000000,0.000000,0.000000,1.000000,0.000000,0.000000)" fill="#ffffff" fill-rule="nonzero" fill-opacity="1.000000"></path><path d="M134.600006 104.400002 L142.300003 102.500000 L145.500000 112.400002 L134.600006 104.400002 Z M152.300003 91.699997 L138.800003 91.699997 L134.600006 79 L130.500000 91.699997 L117 91.699997 L127.900002 99.599998 L123.800003 112.299995 L134.699997 104.399994 L141.399994 99.599991 L152.300003 91.699997 Z" stroke="none" stroke-width="1.000000" stroke-linecap="butt" stroke-linejoin="miter" stroke-miterlimit="4.000000" stroke-opacity="1.000000" transform="matrix(1.000000,0.000000,0.000000,1.000000,0.000000,0.000000)" fill="#ffffff" fill-rule="nonzero" fill-opacity="1.000000"></path><path d="M189.199997 104.400002 L196.899994 102.500000 L200.099991 112.400002 L189.199997 104.400002 Z M206.899994 91.699997 L193.399994 91.699997 L189.199997 79 L185.099991 91.699997 L171.599991 91.699997 L182.499985 99.599998 L178.399979 112.299995 L189.299973 104.399994 L195.999969 99.599991 L206.899994 91.699997 Z" stroke="none" stroke-width="1.000000" stroke-linecap="butt" stroke-linejoin="miter" stroke-miterlimit="4.000000" stroke-opacity="1.000000" transform="matrix(1.000000,0.000000,0.000000,1.000000,0.000000,0.000000)" fill="#ffffff" fill-rule="nonzero" fill-opacity="1.000000"></path><path d="M243.800003 104.400002 L251.500000 102.500000 L254.699997 112.400002 L243.800003 104.400002 Z M261.399994 91.699997 L248 91.699997 L243.800003 79 L239.699997 91.699997 L226.199997 91.699997 L237.099991 99.599998 L232.999985 112.299995 L243.899979 104.399994 L250.599976 99.599991 L261.399994 91.699997 Z" stroke="none" stroke-width="1.000000" stroke-linecap="butt" stroke-linejoin="miter" stroke-miterlimit="4.000000" stroke-opacity="1.000000" transform="matrix(1.000000,0.000000,0.000000,1.000000,0.000000,0.000000)" fill="#ffffff" fill-rule="nonzero" fill-opacity="1.000000"></path><path d="M145.500000 148.800003 L145.500000 144.400009 L137.699997 144.400009 L137.699997 142.300003 L144.800003 131.500000 L148.699997 131.500000 L148.699997 142 L150.899994 142 L150.899994 144.500000 L148.699997 144.500000 L148.699997 148.899994 L145.500000 148.899994 Z M145.500000 142 L145.500000 137.300003 C145.500000 136.300003 145.500000 135.300003 145.600006 134.300003 L145.500000 134.300003 C145 135.400009 144.500000 136.300003 144 137.199997 L140.800003 141.899994 L140.800003 142 L145.500000 142 Z" stroke="none" stroke-width="1.000000" stroke-linecap="butt" stroke-linejoin="miter" stroke-miterlimit="4.000000" stroke-opacity="1.000000" transform="matrix(1.000000,0.000000,0.000000,1.000000,0.000000,0.000000)" fill="#12a885" fill-rule="nonzero" fill-opacity="1.000000"></path><path d="M152.699997 147 C152.699997 145.800003 153.500000 144.899994 154.699997 144.899994 C155.899994 144.899994 156.699997 145.799988 156.699997 147 C156.699997 148.199997 155.899994 149.100006 154.699997 149.100006 C153.600006 149.100006 152.699997 148.199997 152.699997 147 Z" stroke="none" stroke-width="1.000000" stroke-linecap="butt" stroke-linejoin="miter" stroke-miterlimit="4.000000" stroke-opacity="1.000000" transform="matrix(1.000000,0.000000,0.000000,1.000000,0.000000,0.000000)" fill="#12a885" fill-rule="nonzero" fill-opacity="1.000000"></path><path d="M158.600006 144.399994 C158.600006 142.299988 159.800003 140.799988 161.800003 139.899994 L161.800003 139.799988 C160 138.899994 159.199997 137.499985 159.199997 135.999985 C159.199997 133.199982 161.699997 131.299988 165 131.299988 C168.699997 131.299988 170.399994 133.499985 170.399994 135.599991 C170.399994 137.099991 169.599991 138.599991 167.699997 139.499985 L167.699997 139.599991 C169.599991 140.299988 171 141.799988 171 143.999985 C171 147.099991 168.399994 149.199982 164.699997 149.199982 C160.699997 149.100006 158.600006 146.800003 158.600006 144.399994 Z M167.699997 144.300003 C167.699997 142.500000 166.399994 141.600006 164.500000 141.100006 C162.899994 141.600006 161.899994 142.700012 161.899994 144.100006 C161.899994 145.600006 163 146.900009 164.799988 146.900009 C166.500000 146.800003 167.699997 145.699997 167.699997 144.300003 Z M162.300003 135.899994 C162.300003 137.299988 163.500000 138.199997 165.100006 138.599991 C166.300003 138.199997 167.200012 137.299988 167.200012 135.999985 C167.200012 134.799988 166.500015 133.599991 164.700012 133.599991 C163.100006 133.500000 162.300003 134.600006 162.300003 135.899994 Z" stroke="none" stroke-width="1.000000" stroke-linecap="butt" stroke-linejoin="miter" stroke-miterlimit="4.000000" stroke-opacity="1.000000" transform="matrix(1.000000,0.000000,0.000000,1.000000,0.000000,0.000000)" fill="#12a885" fill-rule="nonzero" fill-opacity="1.000000"></path><path d="M172.100006 149.899994 L178.600006 130.599991 L180.900009 130.599991 L174.400009 149.899994 L172.100006 149.899994 Z" stroke="none" stroke-width="1.000000" stroke-linecap="butt" stroke-linejoin="miter" stroke-miterlimit="4.000000" stroke-opacity="1.000000" transform="matrix(1.000000,0.000000,0.000000,1.000000,0.000000,0.000000)" fill="#12a885" fill-rule="nonzero" fill-opacity="1.000000"></path><path d="M193 134.300003 L186.399994 134.300003 L185.899994 137.800003 C186.299988 137.800003 186.599991 137.699997 187.099991 137.699997 C188.599991 137.699997 190.099991 138 191.299988 138.800003 C192.599991 139.600006 193.599991 141.100006 193.599991 143.199997 C193.599991 146.500000 190.899994 149.199997 186.599991 149.199997 C184.599991 149.199997 182.899994 148.699997 181.999985 148.199997 L182.699982 145.699997 C183.399979 146.099991 184.899979 146.599991 186.499985 146.599991 C188.399979 146.599991 190.199982 145.499985 190.199982 143.499985 C190.199982 141.499985 188.699982 140.199982 185.299988 140.199982 C184.299988 140.199982 183.599991 140.299988 182.899994 140.399979 L184 131.699982 L193 131.699982 L193 134.300003 Z" stroke="none" stroke-width="1.000000" stroke-linecap="butt" stroke-linejoin="miter" stroke-miterlimit="4.000000" stroke-opacity="1.000000" transform="matrix(1.000000,0.000000,0.000000,1.000000,0.000000,0.000000)" fill="#12a885" fill-rule="nonzero" fill-opacity="1.000000"></path><path d="M79 134.100006 C80.500000 134 81.900002 134.400009 83.199997 135.100006 C84.099998 135.900009 84.599998 137 84.500000 138.300003 C84.500000 138.900009 84.400002 139.500000 84.099998 140.100006 C83.900002 140.600006 83.500000 141 83.099998 141.300003 C82.699997 141.600006 82.199997 141.900009 81.799995 142.100006 L85.899994 148.400009 L83 148.400009 L79.599998 142.800003 L77.500000 142.800003 L77.500000 148.400009 L74.900002 148.400009 L74.900002 134.100006 L79 134.100006 Z M78.900002 136.199997 L77.599998 136.199997 L77.599998 140.599991 L79 140.599991 C79.800003 140.699997 80.599998 140.499985 81.300003 139.999985 C81.800003 139.599991 82 138.999985 82 138.299988 C82.099998 137.699982 81.800003 136.999985 81.199997 136.699982 C80.500000 136.300003 79.699997 136.100006 78.900002 136.199997 Z M92 137.300003 C93.099998 137.199997 94.300003 137.500000 95.199997 138.199997 C96 138.899994 96.399994 140 96.299995 141 L96.299995 148.300003 L94.499992 148.300003 L93.999992 146.800003 L93.899994 146.800003 C93.499992 147.300003 92.999992 147.800003 92.399994 148.100006 C91.699997 148.400009 90.999992 148.500000 90.299995 148.500000 C89.399994 148.500000 88.599998 148.199997 87.899994 147.699997 C87.199997 147 86.899994 146.099991 86.899994 145.199997 C86.799995 144.199997 87.299995 143.199997 88.099991 142.699997 C89.199989 142.099991 90.499992 141.699997 91.799988 141.800003 L93.699989 141.699997 L93.699989 141.199997 C93.799988 140.699997 93.599991 140.099991 93.199989 139.699997 C92.799988 139.399994 92.299988 139.199997 91.799988 139.300003 C91.299988 139.300003 90.699989 139.400009 90.199989 139.500000 C89.699989 139.699997 89.199989 139.800003 88.699989 140.100006 L87.899986 138.300003 C88.499985 138 89.099983 137.800003 89.699989 137.600006 C90.500000 137.399994 91.199997 137.300003 92 137.300003 Z M93.699997 143.199997 L92.399994 143.199997 C91.599991 143.199997 90.799995 143.399994 90.099991 143.800003 C89.699989 144.100006 89.399994 144.600006 89.499992 145.199997 C89.499992 145.599991 89.599991 146 89.899994 146.300003 C90.299995 146.500000 90.699997 146.699997 91.099991 146.600006 C91.799988 146.600006 92.399994 146.400009 92.999992 146 C93.499992 145.500000 93.799995 144.800003 93.799995 144.100006 L93.699997 143.199997 Z M103.599998 146.500000 C103.900002 146.500000 104.199997 146.500000 104.500000 146.399994 C104.800003 146.299988 105.099998 146.299988 105.300003 146.199997 L105.300003 148.099991 C105 148.299988 104.600006 148.399994 104.300003 148.399994 C103.900002 148.500000 103.400002 148.500000 103 148.500000 C102.400002 148.500000 101.800003 148.399994 101.300003 148.199997 C100.800003 148 100.400002 147.599991 100.100006 147.099991 C99.800003 146.399994 99.600006 145.699997 99.700005 144.999985 L99.700005 139.399979 L98.200005 139.399979 L98.200005 138.299973 L99.800003 137.399979 L100.600006 135.099976 L102.200005 135.099976 L102.200005 137.499969 L105.300003 137.499969 L105.300003 139.399963 L102.200005 139.399963 L102.200005 144.999969 C102.200005 145.399963 102.300003 145.799973 102.600006 146.099976 C102.900002 146.399994 103.199997 146.500000 103.599998 146.500000 Z M111.900002 137.300003 C113.200005 137.199997 114.400002 137.699997 115.400002 138.600006 C116.300003 139.600006 116.700005 140.900009 116.700005 142.200012 L116.700005 143.500015 L109.500008 143.500015 C109.500008 144.300018 109.800011 145.200012 110.300011 145.800018 C110.900009 146.400024 111.700012 146.700012 112.500008 146.600021 C113.100006 146.600021 113.800011 146.500015 114.400009 146.400024 C115.000008 146.200027 115.600006 146.000031 116.100006 145.800018 L116.100006 147.800018 C115.600006 148.100021 115.000008 148.200012 114.400009 148.400024 C113.700012 148.500031 113.000008 148.600021 112.300011 148.600021 C111.300011 148.600021 110.400009 148.400024 109.500008 148.000015 C108.700005 147.600021 108.000008 147.000015 107.600006 146.200012 C107.100006 145.200012 106.900009 144.200012 106.900009 143.100006 C106.800011 141.600006 107.300011 140 108.300011 138.900009 C109.199997 137.800003 110.500000 137.199997 111.900002 137.300003 Z M111.900002 139.199997 C111.300003 139.199997 110.700005 139.399994 110.200005 139.800003 C109.700005 140.300003 109.500008 141 109.500008 141.699997 L114.200005 141.699997 C114.200005 141 114.000008 140.399994 113.600006 139.800003 C113.199997 139.399994 112.500000 139.100006 111.900002 139.199997 Z M122.699997 148.500000 C121.500000 148.500000 120.399994 148 119.599998 147.100006 C118.699997 145.900009 118.299995 144.400009 118.400002 142.900009 C118.300003 141.400009 118.700005 139.900009 119.599998 138.700012 C120.400002 137.800018 121.500000 137.200012 122.699997 137.300018 C123.399994 137.300018 124.099998 137.400024 124.699997 137.800018 C125.199997 138.100021 125.599998 138.500015 125.899994 138.900024 L125.999992 138.900024 C125.999992 138.700027 125.899994 138.400024 125.899994 138.000031 C125.899994 137.600037 125.799995 137.300034 125.799995 136.900024 L125.799995 133.100021 L128.299988 133.100021 L128.299988 148.300018 L126.299988 148.300018 L125.799988 146.900024 L125.699989 146.900024 C125.399986 147.400024 124.999992 147.800018 124.499992 148.000031 C124.099998 148.399994 123.400002 148.600006 122.699997 148.500000 Z M123.500000 146.500000 C124.199997 146.600006 125 146.300003 125.500000 145.699997 C125.900002 145 126.099998 144.099991 126.099998 143.300003 L126.099998 143 C126.199997 142.100006 126 141.199997 125.500000 140.300003 C125 139.600006 124.300003 139.300003 123.500000 139.400009 C122.800003 139.400009 122.099998 139.700012 121.699997 140.300003 C121.199997 141.100006 121 142 121.099998 143 C121 143.899994 121.299995 144.800003 121.699997 145.600006 C122.099998 146.199997 122.800003 146.500000 123.500000 146.500000 Z" stroke="none" stroke-width="1.000000" stroke-linecap="butt" stroke-linejoin="miter" stroke-miterlimit="4.000000" stroke-opacity="1.000000" transform="matrix(1.000000,0.000000,0.000000,1.000000,0.000000,0.000000)" fill="#404041" fill-rule="nonzero" fill-opacity="1.000000"></path></g></svg>