<?xml version="1.0" encoding="utf-8"?>
<!-- Generator: Adobe Illustrator 19.2.1, SVG Export Plug-In . SVG Version: 6.00 Build 0)  -->
<svg version="1.1" id="Layer_1" xmlns="http://www.w3.org/2000/svg" xmlns:xlink="http://www.w3.org/1999/xlink" x="0px" y="0px"
	 viewBox="0 0 60 60" style="enable-background:new 0 0 60 60;" xml:space="preserve">
<style type="text/css">
	.st0{fill:#FFFFFF;}
</style>
<g>
	<path class="st0" d="M18,34.5h13v2H18V34.5z"/>
	<path class="st0" d="M18,29.5h11v2H18V29.5z"/>
	<path class="st0" d="M57,7.5H46v-4c0-0.6-0.4-1-1-1H15c-0.6,0-1,0.4-1,1v4H3c-1.7,0-3,1.3-3,3v30c0,1.7,1.3,3,3,3h22v6h-9
		c-0.6,0-1,0.4-1,1v5h-2v2h34v-2h-2v-5c0-0.6-0.4-1-1-1h-9v-6h22c1.7,0,3-1.3,3-3v-30C60,8.8,58.7,7.5,57,7.5z M57,9.5
		c0.6,0,1,0.4,1,1v25H46V24.2l4.8-5.8c1.2-1.5,1.2-3.6,0.1-5c-1.2-1.5-3.2-1.9-4.9-1.1V9.5H57z M38.4,30.2l-3.1-2.6l9-10.7l3.1,2.6
		L38.4,30.2z M34.6,29.6l1.9,1.6L34.3,32L34.6,29.6z M49.3,17.2L48.7,18l-3.1-2.6l0.6-0.8c0.7-0.8,2-1,2.8-0.2
		C49.9,15.1,50,16.3,49.3,17.2z M16,4.5h28v9.7L33.1,27.1c-0.1,0.1-0.2,0.3-0.2,0.5L32,33.3c-0.1,0.3,0.1,0.7,0.3,0.9
		c0.3,0.2,0.6,0.3,1,0.2l5.5-1.9c0.2-0.1,0.3-0.2,0.4-0.3l4.7-5.6v11.9H16V4.5z M3,9.5h11v26H2v-25C2,9.9,2.4,9.5,3,9.5z M43,55.5
		H17v-4h26V55.5z M33,49.5h-6v-6h6V49.5z M57,41.5H3c-0.6,0-1-0.4-1-1v-3h12v2c0,0.6,0.4,1,1,1h30c0.6,0,1-0.4,1-1v-2h12v3
		C58,41.1,57.6,41.5,57,41.5z"/>
	<path class="st0" d="M54,38.5h2v2h-2V38.5z"/>
	<path class="st0" d="M18,6.5h4v2h-4V6.5z"/>
	<path class="st0" d="M24,6.5h17v2H24V6.5z"/>
	<path class="st0" d="M18,11.5h23v2H18V11.5z"/>
	<path class="st0" d="M18,16.5h2v2h-2V16.5z"/>
	<path class="st0" d="M22,16.5h2v2h-2V16.5z"/>
	<path class="st0" d="M26,16.5h11v2H26V16.5z"/>
	<path class="st0" d="M18,21.5h6v2h-6V21.5z"/>
	<path class="st0" d="M26,21.5h7v2h-7V21.5z"/>
</g>
</svg>
