<?xml version="1.0" encoding="utf-8"?>
<!-- Generator: Adobe Illustrator 19.2.1, SVG Export Plug-In . SVG Version: 6.00 Build 0)  -->
<svg version="1.1" id="Layer_1" xmlns="http://www.w3.org/2000/svg" xmlns:xlink="http://www.w3.org/1999/xlink" x="0px" y="0px"
	 viewBox="0 0 60 60" style="enable-background:new 0 0 60 60;" xml:space="preserve">
<style type="text/css">
	.st0{fill:#FFFFFF;}
</style>
<g id="Shopping_Bag-Hands-Bag-Purchase-Buy_1_">
	<path class="st0" d="M40.8,10.6h-3.9v-3c0-3.8-3.1-6.9-6.9-6.9s-6.9,3.1-6.9,6.9v3h-3.9c-0.5,0-1,0.4-1,1V33c0,1.6,1.3,2.9,3,3
		h12.7v-1.9H21.2c-0.5,0-1-0.4-1-1v-1h13.6v-1.9H20.3V12.5h3v3h1.9v-3h9.7v3h1.9v-3h3v3h1.9v-3.9C41.8,11.1,41.3,10.6,40.8,10.6z
		 M34.9,10.6h-9.7v-3c0-2.7,2.2-4.9,4.9-4.9S35,4.9,35,7.6L34.9,10.6L34.9,10.6z"/>
	<path class="st0" d="M54.4,17.5H36.9c-0.5,0-1,0.4-1,1v14.7c0,1.6,1.3,2.9,3,3h13.6c1.6,0,2.9-1.3,3-3V18.5
		C55.5,17.9,54.9,17.5,54.4,17.5z M53.5,33.1c0,0.5-0.4,1-1,1H38.8c-0.5,0-1-0.4-1-1v-1h15.6L53.5,33.1L53.5,33.1z M53.5,30.1H37.9
		V19.3h15.6V30.1z"/>
	<path class="st0" d="M45.7,28.1c2.7,0,4.9-2.2,4.9-4.9v-1.9h-1.9v1.9c0,1.6-1.3,3-3,3c-1.6,0-3-1.3-3-3v-1.9h-1.9v1.9
		C40.8,26,43,28.1,45.7,28.1z"/>
	<path class="st0" d="M59.6,42.4c-0.9-1.8-3.1-2.7-5.1-1.9l-8.7,3.1c-0.4-1.4-1.6-2.6-3.1-2.9l-11.8-2.1c-2.5-0.4-5.1-0.3-7.5,0.6
		l-1.6,0.5c-1.4,0.5-2.7,1.3-4,2.1l-0.3-0.6c-0.1-0.5-0.8-0.8-1.3-0.6l0,0l-11,4c-0.5,0.1-0.8,0.8-0.6,1.3l0,0L0,47.6l0.6,1.8
		l4.5-1.7l4,10.9L11,58L6.8,46.2l9.2-3.4l5,13.8l-2,0.9l0.6,1.8l3.2-1.2c0.5-0.1,0.8-0.8,0.6-1.3l0,0L23,55.9l2.2-0.8
		c1.4-0.5,2.9-0.8,4.4-0.6l4.7,0.3c1.8,0.1,3.5-0.1,5.2-0.8l17.8-6.5c2.1-0.8,3.1-3,2.3-4.9C59.7,42.5,59.7,42.4,59.6,42.4
		L59.6,42.4z M57.8,44.7c-0.3,0.5-0.6,0.8-1,1L39,52.3c-1.4,0.5-2.9,0.8-4.4,0.6l-4.7-0.3c-1.8-0.1-3.5,0.1-5.2,0.8l-2.2,0.8
		l-3.8-10.4c1.2-0.9,2.6-1.7,4-2.2l1.6-0.5c2.1-0.8,4.3-0.9,6.5-0.5l11.8,2.1c1,0.1,1.8,1.2,1.6,2.2S43,46.7,42,46.5l0,0l-10.5-1.8
		L31,46.6l10.5,1.8c1.9,0.4,3.8-0.8,4.4-2.7l9.5-3.4c1-0.4,2.1,0,2.6,1C58.1,43.7,58.1,44.2,57.8,44.7z"/>
</g>
</svg>
