<?xml version="1.0" encoding="utf-8"?>
<!-- Generator: Adobe Illustrator 19.2.1, SVG Export Plug-In . SVG Version: 6.00 Build 0)  -->
<svg version="1.1" id="Layer_1" xmlns="http://www.w3.org/2000/svg" xmlns:xlink="http://www.w3.org/1999/xlink" x="0px" y="0px"
	 viewBox="0 0 60 60" style="enable-background:new 0 0 60 60;" xml:space="preserve">
<style type="text/css">
	.st0{fill:#FFFFFF;}
</style>
<g>
	<path class="st0" d="M57.1,0H14.5c-1.6,0-2.9,1.3-2.9,2.9v16.5c-2.3,1.3-3.9,3.8-3.9,6.7c0,3.3,1.4,6.5,3.9,8.7
		c0.3,3,2.2,5.6,4.8,6.9v2.1l-6.8,1.6C4,46.7,0,51.7,0,57.6V60h40.6v-2.4c0-4.8-2.6-9-6.7-11.1h12.5v8.7c0,2.7,2.2,4.8,4.8,4.8
		s4.8-2.2,4.8-4.8v-8.7h1c1.6,0,2.9-1.3,2.9-2.9V2.9C60,1.3,58.7,0,57.1,0z M14.5,1.9h42.6c0.5,0,1,0.4,1,1v4.8H13.5V2.9
		C13.5,2.4,14,1.9,14.5,1.9z M9.7,26.1c0-3.2,2.6-5.8,5.8-5.8h3.4c1.8,0,3.5-0.6,4.8-1.7l2.1-1.7c0.6,1,1.2,2.4,1.2,3.4
		c0,1.4-1.7,2.9-4.8,2.9v1.9c3.8,0,5.9-1.7,6.5-3.5c1.3,1.1,2.2,2.7,2.2,4.5c0,2.1-0.7,4.1-1.9,5.8v-2.4c0-1.9-1.5-3.4-3.4-3.4
		c-0.4,0-0.9,0.1-1.3,0.2c-2.6,1-5.5,1-8.1,0c-0.4-0.2-0.8-0.2-1.3-0.2c-1.9,0-3.4,1.5-3.4,3.4v2.4C10.4,30.3,9.7,28.2,9.7,26.1z
		 M13.5,33.9v-4.3c0-0.8,0.7-1.5,1.5-1.5c0.2,0,0.4,0,0.5,0.1c3.1,1.2,6.5,1.2,9.5,0c0.2-0.1,0.4-0.1,0.5-0.1c0.8,0,1.5,0.7,1.5,1.5
		v4.3c0,3.7-3,6.8-6.8,6.8S13.5,37.6,13.5,33.9L13.5,33.9z M23.7,45.6l0.4,0.1l-0.6,5.4l-1.9-1.9L23.7,45.6z M20.3,42.6
		c0.7,0,1.3-0.1,1.9-0.2v1.9l-1.9,3.2l-1.9-3.2v-1.9C19,42.5,19.7,42.6,20.3,42.6z M17,45.6l2.2,3.6l-1.9,1.9l-0.6-5.4L17,45.6z
		 M38.7,57.6v0.5h-5.8v-3.9H31v3.9H9.7v-3.9h-2v3.9H1.9v-0.5c0-5,3.4-9.2,8.2-10.4l4.5-1.1l1,9.2l4.6-4.6l4.6,4.6l1-9.2l4.5,1.1
		C35.3,48.4,38.7,52.6,38.7,57.6z M54.2,34.8v15.5h-1.9V34.8H54.2z M49.2,32.9l2.1-3.1l2.1,3.1H49.2z M48.4,34.8h1.9v15.5h-1.9V34.8
		z M51.3,58.1c-1.6,0-2.9-1.3-2.9-2.9v-2.9h5.8v2.9C54.2,56.8,52.9,58.1,51.3,58.1z M57.1,44.5h-1V33.6l-4.8-7.3l-4.8,7.3v10.9h-19
		l-3.3-0.8v-2.1c2.6-1.3,4.5-3.8,4.8-6.9c2.5-2.2,3.9-5.3,3.9-8.7c0-2.8-1.6-5.4-4-6.7c-0.4-2-1.8-4.2-2-4.4L26.3,14l-3.8,3
		c-1,0.8-2.3,1.3-3.6,1.3h-3.4c-0.7,0-1.3,0.1-1.9,0.3v-9h44.5v33.9C58.1,44.1,57.6,44.5,57.1,44.5L57.1,44.5z"/>
	<path class="st0" d="M19.4,54.2h1.9v1.9h-1.9V54.2z"/>
	<path class="st0" d="M23.2,3.9h1.9v1.9h-1.9V3.9z"/>
	<path class="st0" d="M15.5,3.9h1.9v1.9h-1.9V3.9z"/>
	<path class="st0" d="M19.4,3.9h1.9v1.9h-1.9V3.9z"/>
	<path class="st0" d="M23.2,11.6h1.9v1.9h-1.9V11.6z"/>
	<path class="st0" d="M19.4,11.6h1.9v1.9h-1.9V11.6z"/>
	<path class="st0" d="M15.5,11.6h1.9v1.9h-1.9V11.6z"/>
	<path class="st0" d="M34.8,25.2h21.3V11.6H34.8V25.2z M36.8,13.5h17.4v9.7H36.8V13.5z"/>
	<path class="st0" d="M38.7,15.5h13.5v1.9H38.7V15.5z"/>
	<path class="st0" d="M38.7,19.4h13.5v1.9H38.7V19.4z"/>
	<path class="st0" d="M34.8,27.1h9.7V29h-9.7V27.1z"/>
	<path class="st0" d="M34.8,31h9.7v1.9h-9.7V31z"/>
	<path class="st0" d="M31,34.8h13.5v1.9H31V34.8z"/>
	<path class="st0" d="M31,38.7h9.7v1.9H31V38.7z"/>
	<path class="st0" d="M42.6,38.7h1.9v1.9h-1.9V38.7z"/>
</g>
</svg>
