<?xml version="1.0" encoding="utf-8"?>
<!-- Generator: Adobe Illustrator 19.2.1, SVG Export Plug-In . SVG Version: 6.00 Build 0)  -->
<svg version="1.1" id="Layer_1" xmlns="http://www.w3.org/2000/svg" xmlns:xlink="http://www.w3.org/1999/xlink" x="0px" y="0px"
	 viewBox="0 0 60 60" style="enable-background:new 0 0 60 60;" xml:space="preserve">
<style type="text/css">
	.st0{fill:#FFFFFF;}
</style>
<g>
	<g>
		<path class="st0" d="M46.6,7.3c0-0.6-0.5-1.2-1.2-1.2l0,0c-0.6,0-1.2,0.5-1.2,1.2s0.5,1.2,1.2,1.2S46.6,8,46.6,7.3z"/>
		<path class="st0" d="M52.9,7.3c0-0.6-0.5-1.2-1.2-1.2l0,0c-0.6,0-1.2,0.5-1.2,1.2s0.5,1.2,1.2,1.2S52.9,8,52.9,7.3L52.9,7.3z"/>
		<path class="st0" d="M40.3,7.3c0-0.6-0.5-1.2-1.2-1.2l0,0c-0.6,0-1.2,0.5-1.2,1.2s0.5,1.2,1.2,1.2S40.3,8,40.3,7.3L40.3,7.3z"/>
		<path class="st0" d="M7.1,7.3c0,0.6,0.5,1.2,1.2,1.2h17.6C26.5,8.5,27,8,27,7.3s-0.5-1.2-1.2-1.2H8.3C7.6,6.2,7.1,6.7,7.1,7.3z"/>
		<path class="st0" d="M56.2,0H19.6c-0.6,0-1.2,0.5-1.2,1.2s0.5,1.2,1.2,1.2h36.6c0.8,0,1.4,0.6,1.4,1.4v8.6H2.4V3.8
			C2.4,3,3,2.3,3.8,2.3h5.3c0.6,0,1.2-0.5,1.2-1.2S9.7,0,9.1,0H3.8C1.7,0,0,1.7,0,3.8v52.5c0,2,1.7,3.7,3.8,3.7h52.4
			c2.1,0,3.8-1.7,3.8-3.8V3.8C60,1.7,58.3,0,56.2,0z M56.2,57.7H3.8c-0.8,0-1.4-0.6-1.4-1.4V14.7h55.3v41.6
			C57.6,57,57,57.7,56.2,57.7z"/>
		<path class="st0" d="M11,44.8c-2.7,0-4.9,2.2-4.9,4.9s2.2,4.9,4.9,4.9s4.9-2.2,4.9-4.9S13.7,44.8,11,44.8z M11,52.3
			c-1.4,0-2.5-1.1-2.5-2.5s1.1-2.5,2.5-2.5s2.5,1.1,2.5,2.5C13.5,51.1,12.4,52.3,11,52.3z"/>
		<path class="st0" d="M23.7,44.8c-2.7,0-4.9,2.2-4.9,4.9s2.2,4.9,4.9,4.9s4.9-2.2,4.9-4.9C28.5,47,26.3,44.8,23.7,44.8z M23.7,52.3
			c-1.4,0-2.5-1.1-2.5-2.5s1.1-2.5,2.5-2.5s2.5,1.1,2.5,2.5C26.2,51.1,25.1,52.3,23.7,52.3z"/>
		<path class="st0" d="M36.3,44.8c-2.7,0-4.9,2.2-4.9,4.9s2.2,4.9,4.9,4.9s4.9-2.2,4.9-4.9S39,44.8,36.3,44.8z M36.3,52.3
			c-1.4,0-2.5-1.1-2.5-2.5s1.1-2.5,2.5-2.5s2.5,1.1,2.5,2.5C38.9,51.1,37.7,52.3,36.3,52.3z"/>
		<path class="st0" d="M49,44.8c-2.7,0-4.9,2.2-4.9,4.9s2.2,4.9,4.9,4.9s4.9-2.2,4.9-4.9S51.7,44.8,49,44.8z M49,52.3
			c-1.4,0-2.5-1.1-2.5-2.5s1.1-2.5,2.5-2.5s2.5,1.1,2.5,2.5C51.6,51.1,50.4,52.3,49,52.3z"/>
		<path class="st0" d="M6.1,39.1c0,0.6,0.6,1.1,1.2,1.1h26.2c0.6,0,1.2-0.5,1.2-1.2V19.2c0-0.6-0.5-1.2-1.2-1.2H7.3
			c-0.6,0-1.2,0.5-1.2,1.2L6.1,39.1L6.1,39.1L6.1,39.1z M25.5,37.9l-2.2-3.4l2.9-4.6l5.1,8H25.5z M22.7,37.9H9.4l6.7-10.5L22.7,37.9
			z M32.3,20.4V35l-5.1-8c-0.2-0.3-0.6-0.5-1-0.5s-0.8,0.2-1,0.5L22,32.2l-4.9-7.7c-0.2-0.3-0.6-0.5-1-0.5l0,0c-0.4,0-0.8,0.2-1,0.5
			L8.4,35V20.4H32.3z"/>
		<path class="st0" d="M39.6,20.4h13.1c0.6,0,1.2-0.5,1.2-1.2S53.3,18,52.7,18H39.6c-0.6,0-1.2,0.5-1.2,1.2S39,20.4,39.6,20.4z"/>
		<path class="st0" d="M39.6,26.9h13.1c0.6,0,1.2-0.5,1.2-1.2s-0.5-1.2-1.2-1.2H39.6c-0.6,0-1.2,0.5-1.2,1.2S39,26.9,39.6,26.9z"/>
		<path class="st0" d="M39.6,33.4h13.1c0.6,0,1.2-0.5,1.2-1.2c0-0.6-0.5-1.2-1.2-1.2H39.6c-0.6,0-1.2,0.5-1.2,1.2
			C38.4,32.8,39,33.4,39.6,33.4z"/>
		<path class="st0" d="M39.6,39.9h13.1c0.6,0,1.2-0.5,1.2-1.2s-0.5-1.2-1.2-1.2H39.6c-0.6,0-1.2,0.5-1.2,1.2S39,39.9,39.6,39.9z"/>
		<path class="st0" d="M14.3,2.3L14.3,2.3c0.7,0,1.2-0.5,1.2-1.2S15,0,14.3,0c-0.6,0-1.2,0.5-1.2,1.2S13.7,2.3,14.3,2.3z"/>
	</g>
</g>
</svg>
