<?xml version="1.0" encoding="utf-8"?>
<!-- Generator: Adobe Illustrator 27.0.0, SVG Export Plug-In . SVG Version: 6.00 Build 0)  -->
<svg version="1.1" id="Layer_1" xmlns="http://www.w3.org/2000/svg" xmlns:xlink="http://www.w3.org/1999/xlink" x="0px" y="0px"
	 viewBox="0 0 1097.61 438.24" style="enable-background:new 0 0 1097.61 438.24;" xml:space="preserve">
<style type="text/css">
	.st0{fill:#189D59;}
	.st1{fill:#577EBF;}
	.st2{fill:#DC4637;}
	.st3{fill:#197F47;}
	.st4{fill:#F2B41F;}
	.st5{fill:#C0902E;}
	.st6{fill:#F5C233;}
	.st7{fill:#E8732A;}
	.st8{fill:#E02A3D;}
	.st9{fill:#4DB965;}
	.st10{fill:#FDFCFC;}
	.st11{fill:#8D8D8C;}
	.st12{fill:#070807;}
	.st13{fill:#FFFFFF;}
	.st14{fill:#F8EA7F;}
	.st15{fill:#6BC7C3;}
	.st16{fill:#F9F9F8;}
</style>
<path class="st12" d="M63.81,285.33c-8.15-6.55-15.61-13.75-21.29-22.63c-0.62-1.87-1.12-3.8-2.96-4.94c0,0,0.04,0.04,0.04,0.04
	c-0.25-0.94-0.39-1.93-0.77-2.82c-19.91-47.08,11.74-97.71,62.81-100.36c13.42-0.7,25.87,3.07,37.84,8.77
	c0.13,0.32,0.37,0.48,0.72,0.5c0.94,1.93,2.98,2.2,4.6,3.11c0,0,0.27,0.19,0.27,0.19c0.55,0.35,1.11,0.69,1.66,1.04
	c6.88,5.38,12.3,12.11,17.65,18.91c0.47,0.93,0.26,2.32,1.76,2.53c0,0-0.03-0.03-0.03-0.03c0.6,1.47,1.13,2.97,1.81,4.4
	c11.41,24.07,10.68,47.81-3.77,70.14c-15.5,23.95-38.14,34.74-66.79,32.82c-10.65-0.71-20.04-5.2-29.73-8.89
	c0,0,0.01,0.01,0.01,0.01C67.02,286.31,65.21,286.1,63.81,285.33z M73.45,210.23c-3.65,0-7.3-0.08-10.95,0.03
	c-2.09,0.06-4.88-0.91-5.7,2.01c-0.78,2.75,1.89,3.77,3.57,5.06c5.79,4.43,11.49,9.02,17.54,13.05c4.5,3,5.42,6.58,3.84,11.4
	c-2.39,7.29-4.72,14.59-6.93,21.93c-0.64,2.12-2.75,4.56,0.18,6.52c2.93,1.95,4.4-1.1,6.12-2.34c5.91-4.26,11.73-8.67,17.32-13.33
	c3.93-3.28,7.36-3.37,11.34-0.18c6.15,4.93,12.5,9.62,18.79,14.39c1.58,1.2,3.18,2.97,5.31,1.15c1.7-1.46,0.86-3.38,0.33-5.07
	c-2.39-7.7-4.66-15.45-7.34-23.05c-1.65-4.68-0.99-8.01,3.28-10.96c6.48-4.48,12.64-9.43,18.95-14.16c1.5-1.13,3.07-2.31,2.39-4.42
	c-0.7-2.19-2.73-2.02-4.57-2.02c-7.1,0.01-14.21-0.31-21.29,0.1c-5.85,0.34-9-1.86-10.6-7.49c-2.1-7.38-4.78-14.61-7.22-21.89
	c-0.64-1.91-1.16-4.32-3.53-4.43c-2.86-0.13-3.18,2.55-3.88,4.65c-1.41,4.2-2.94,8.37-4.33,12.58
	C89.72,212.99,93.29,209.94,73.45,210.23z"/>
<path class="st13" d="M744.96,263.53c9.75-29.63,19.13-58.16,28.52-86.68c0.38-1.15,0.8-2.29,1.16-3.45
	c1.14-3.62,3.15-5.92,7.38-5.83c4.25,0.09,6.02,2.64,7.18,6.17c5.67,17.25,11.38,34.48,17.06,51.72
	c4.08,12.39,8.13,24.78,12.59,38.37c9.12-26.23,17.77-51.13,26.43-76.02c1.59-4.56,3.3-9.09,4.8-13.68
	c1.49-4.56,4.07-8.04,9.22-6.09c4.62,1.75,4.76,5.62,3.12,10.12c-12,32.95-23.81,65.96-35.69,98.95c-1.42,3.93-3.09,7.62-8.26,7.45
	c-5.2-0.18-6.43-4.18-7.74-8.04c-8.75-25.79-17.48-51.58-26.22-77.37c-0.7-2.05-1.48-4.07-2.78-7.65
	c-5.47,15.97-10.46,30.43-15.37,44.92c-4.6,13.57-9.14,27.17-13.64,40.77c-1.37,4.12-3.32,7.38-8.33,7.38
	c-4.68,0-6.07-3.52-7.31-6.94c-11.99-32.96-23.91-65.94-35.85-98.92c-1.19-3.29-2.25-6.53,0.85-9.47c2.04-1.93,4.44-2.09,6.77-1.22
	c2.86,1.07,3.99,3.67,4.96,6.46c9.68,28.01,19.44,55.99,29.18,83.98C743.47,259.77,744.01,261.06,744.96,263.53z"/>
<path class="st13" d="M268.54,236.17c9.05,11.67,17.94,23.19,26.89,34.66c4.18,5.35,4.59,8.84,0.59,11.41
	c-4.43,2.86-7.76,0.94-10.76-3.02c-9.4-12.41-19.14-24.55-28.48-37c-2.2-2.93-4.4-4.09-8.01-3.98c-7.89,0.26-15.81,0.26-23.7,0
	c-3.54-0.12-4.37,1.06-4.29,4.42c0.21,9.92,0.08,19.85,0.07,29.78c0,1.62,0.16,3.28-0.15,4.85c-0.73,3.7-2.55,6.42-6.88,6.16
	c-4.24-0.26-6.02-2.93-6.14-6.83c-0.14-4.25-0.03-8.51-0.03-12.76c0-28.57-0.01-57.13,0.01-85.7c0-8.27,2.02-10.39,10.41-10.3
	c14.97,0.16,29.97-0.72,44.92,0.65c15.22,1.4,27.96,6.9,33.81,22.27c6.8,17.87-1.95,36.24-19.94,42.68
	C274.2,234.41,271.5,235.21,268.54,236.17z M220.84,203.06c0,6.69,0.04,13.38-0.02,20.06c-0.02,2.22,0.02,3.93,3.1,3.83
	c13.15-0.43,26.35,0.91,39.44-0.9c13.44-1.86,21.96-10.73,22.08-22.48c0.13-12.6-7.03-20.21-21.36-22.56
	c-13.29-2.18-26.69-0.42-40.03-1.05c-2.91-0.14-3.28,1.25-3.24,3.63C220.9,190.09,220.84,196.58,220.84,203.06z"/>
<path class="st13" d="M324.48,225.05c0-15.81-0.02-31.62,0.01-47.43c0.01-7.54,2.13-9.74,9.74-9.77
	c21.69-0.07,43.38-0.01,65.08-0.05c2.29,0,4.53,0.2,6.43,1.41c2.27,1.45,3.16,3.82,2.42,6.35c-1,3.4-3.65,4.4-7.08,4.39
	c-19.06-0.08-38.12,0.16-57.17-0.17c-5.01-0.09-6.53,1.06-6.26,6.2c0.48,9.1,0.37,18.24,0.03,27.35c-0.16,4.35,0.72,5.84,5.49,5.73
	c15.8-0.36,31.62-0.14,47.44-0.13c1.62,0,3.29-0.12,4.84,0.24c3.19,0.76,5.78,2.55,5.52,6.2c-0.26,3.8-2.65,5.66-6.54,5.65
	c-13.79-0.04-27.57-0.12-41.36,0.04c-4.98,0.06-11.6-2.27-14.49,1.01c-2.44,2.78-0.74,9.24-0.8,14.07
	c-0.05,5.27-0.01,10.54-0.01,15.81c0,9.29,0,9.29,9.6,9.29c17.64,0,35.28,0.09,52.91-0.06c4.55-0.04,8.73,0.75,8.81,5.87
	c0.09,5.5-4.28,6.36-9.03,6.33c-21.69-0.11-43.38-0.04-65.08-0.05c-8.45-0.01-10.5-2.01-10.51-10.26
	C324.46,257.07,324.48,241.06,324.48,225.05z"/>
<path class="st13" d="M599.45,225.14c0-16.21-0.02-32.42,0.01-48.63c0.01-6.03,2.16-8.58,8.27-8.62c22.7-0.16,45.4-0.08,68.09-0.04
	c4.24,0.01,7.43,2.17,7.31,6.42c-0.12,4.32-3.37,5.74-7.69,5.71c-19.25-0.15-38.51,0.04-57.76-0.16c-3.89-0.04-5.16,0.87-5.03,4.93
	c0.32,9.51,0.33,19.05,0,28.56c-0.15,4.33,0.69,5.86,5.49,5.75c16-0.36,32.02-0.13,48.03-0.14c2.44,0,4.97-0.26,6.98,1.43
	c1.89,1.59,3.44,3.43,2.4,6.26c-1.12,3.06-3.26,4.41-6.46,4.41c-12.16-0.03-24.32-0.01-36.48-0.01c-5.47,0-10.95,0.11-16.41-0.05
	c-2.56-0.08-3.54,0.56-3.5,3.34c0.15,11.14,0.23,22.29-0.03,33.43c-0.09,3.87,1.99,3.55,4.52,3.54c19.25-0.04,38.51,0.01,57.76-0.05
	c4.31-0.01,8.65,0.23,8.81,5.75c0.17,5.87-4.26,6.39-8.86,6.38c-21.89-0.04-43.78,0-65.66-0.03c-7.65-0.01-9.78-2.12-9.78-9.57
	C599.44,257.56,599.45,241.35,599.45,225.14z"/>
<path class="st13" d="M923.87,284.73c-17.25,0.04-30.9-5.23-43.17-14.59c-3.59-2.74-5.24-5.94-2.25-9.77
	c2.97-3.8,6.48-3.11,10.01-0.22c13.42,10.95,28.57,15.46,45.6,11.01c9.3-2.43,14.41-8.89,14.73-16.96
	c0.36-9.14-3.38-14.69-13.62-18.21c-8.37-2.88-17.09-4.7-25.59-7.21c-4.23-1.25-8.48-2.66-12.44-4.57
	c-12.42-5.98-18.23-16.88-16.45-30.17c1.63-12.14,12.66-23.47,25.59-26.1c15.67-3.19,30.52-1,44.37,7.17
	c1.39,0.82,2.72,1.75,3.99,2.74c3.21,2.5,3.96,5.75,1.62,9c-2.34,3.26-5.59,3.64-8.99,1.19c-9.89-7.13-20.87-10.28-33.08-9.43
	c-14.13,0.98-23.29,11.48-20.2,23.48c2.04,7.89,8.45,11,15.26,13.14c8.82,2.77,17.96,4.56,26.72,7.49
	c11.31,3.78,22,8.78,25.03,22.06c3.8,16.63-4.69,31.56-20.97,37.31C934.26,284.12,928.33,285.06,923.87,284.73z"/>
<path class="st13" d="M477.91,266.94c12.47-29.96,24.45-58.75,36.44-87.52c1.01-2.42,2.21-4.75,3.24-7.16
	c1.82-4.25,5.23-6.05,9.27-4.27c4.32,1.89,4.34,5.89,2.63,9.87c-5.18,12.01-10.35,24.02-15.58,36.01
	c-9.17,21.04-18.45,42.04-27.51,63.13c-1.74,4.04-3.87,7.28-8.56,7.39c-4.75,0.11-7.13-3.2-8.83-7.13
	c-14.15-32.7-28.28-65.42-42.5-98.1c-1.97-4.52-2.99-8.74,2.4-11.33c4.23-2.03,7.49,0.35,10.13,6.7
	c12.25,29.37,24.51,58.73,36.77,88.09C476.27,263.69,476.82,264.71,477.91,266.94z"/>
<path class="st14" d="M67.64,288.13c9.69,3.69,19.08,8.18,29.73,8.89c28.65,1.92,51.29-8.87,66.79-32.82
	c14.45-22.33,15.18-46.08,3.77-70.14c-0.68-1.43-1.21-2.93-1.81-4.4c7.33,4.33,10.46,11.94,13.03,19.15
	c9.24,25.81,5.74,49.86-11.74,71.54c-14.34,17.78-33.46,25.86-55.63,25.89c-16.11,0.03-31.04-5.4-43.66-15.99
	C67.42,289.65,67.22,288.96,67.64,288.13z"/>
<path class="st15" d="M139.48,163.4c-11.97-5.69-24.42-9.46-37.84-8.77c-51.07,2.65-82.72,53.27-62.81,100.36
	c0.38,0.89,0.52,1.88,0.77,2.82c-5.54-1.12-6.26-6.52-8.09-10.24c-20.01-40.8,3.83-90.78,48.01-100.23
	c20.12-4.31,39.34-1.18,56.44,11.16C137.68,159.73,140.19,160.41,139.48,163.4z"/>
<path class="st13" d="M554.42,225.08c0-16.41,0.06-32.81-0.04-49.22c-0.03-4.66,1.16-8.07,6.52-8.21c5.86-0.15,6.16,3.88,6.15,8.27
	c-0.04,33.02-0.07,66.03,0.04,99.05c0.02,4.92-1.13,8.82-6.67,8.66c-5.29-0.15-6.06-4.26-6.03-8.72
	C554.47,258.29,554.42,241.68,554.42,225.08z"/>
<path class="st13" d="M1045.91,281.04c-13.81-0.05-24.18-10.71-24.12-24.81c0.06-13.99,11.1-24.68,25.29-24.47
	c13.62,0.2,24.35,10.93,24.28,24.29C1071.28,270.51,1060.51,281.09,1045.91,281.04z M1029.11,256.05
	c-0.18,10.31,7.48,18.61,17.3,18.76c9.49,0.14,17.42-7.73,17.85-17.72c0.43-9.97-7.5-18.63-17.28-18.87
	C1036.77,237.98,1029.29,245.44,1029.11,256.05z"/>
<path class="st13" d="M1008.43,256.57c0,6.27-0.04,12.55,0.02,18.82c0.03,2.48-0.41,4.61-3.37,4.7c-3.2,0.1-3.93-1.96-3.91-4.79
	c0.07-12.55,0.06-25.09,0.01-37.64c-0.01-2.7,0.56-5.23,3.64-5.19c3.03,0.04,3.65,2.6,3.63,5.28
	C1008.4,244.02,1008.43,250.3,1008.43,256.57z"/>
<path class="st13" d="M985.75,274.82c0.1,3.6-1.14,5.91-4.32,5.84c-3.05-0.07-4.59-2.46-4.48-5.32c0.11-2.71,1.29-5.31,4.58-5.23
	C984.72,270.18,985.95,272.36,985.75,274.82z"/>
<path class="st13" d="M1008.88,218.29c-0.01,2.58-0.92,4.25-3.86,4.24c-2.62-0.02-4.35-1.05-4.31-3.82
	c0.03-2.65,0.99-4.83,4.19-4.71C1007.57,214.1,1008.87,215.64,1008.88,218.29z"/>
<path class="st15" d="M144.81,167c-1.62-0.91-3.67-1.18-4.6-3.11C142.5,163.8,144.87,163.6,144.81,167z"/>
<path class="st15" d="M39.56,257.77c1.84,1.13,2.34,3.07,2.96,4.94C40.02,261.97,38.9,260.41,39.56,257.77z"/>
<path class="st14" d="M63.81,285.33c1.41,0.76,3.22,0.98,3.84,2.81C65.21,288.79,64.53,287.03,63.81,285.33z"/>
<path class="st14" d="M166.15,189.68c-1.5-0.21-1.29-1.61-1.76-2.53C165.77,187.44,166.7,188.05,166.15,189.68z"/>
<path class="st15" d="M146.74,168.24c-0.55-0.35-1.11-0.69-1.66-1.04C146.2,166.63,146.55,167.3,146.74,168.24z"/>
<path class="st16" d="M73.45,210.23c19.84-0.29,16.27,2.77,22.63-16.49c1.39-4.21,2.92-8.38,4.33-12.58c0.7-2.1,1.03-4.78,3.88-4.65
	c2.37,0.11,2.89,2.51,3.53,4.43c2.44,7.29,5.12,14.51,7.22,21.89c1.6,5.63,4.75,7.83,10.6,7.49c7.07-0.41,14.19-0.09,21.29-0.1
	c1.84,0,3.87-0.17,4.57,2.02c0.68,2.11-0.88,3.3-2.39,4.42c-6.31,4.73-12.47,9.68-18.95,14.16c-4.27,2.95-4.93,6.28-3.28,10.96
	c2.68,7.6,4.95,15.35,7.34,23.05c0.52,1.69,1.37,3.61-0.33,5.07c-2.13,1.83-3.73,0.05-5.31-1.15c-6.28-4.77-12.63-9.45-18.79-14.39
	c-3.98-3.19-7.41-3.09-11.34,0.18c-5.59,4.66-11.42,9.07-17.32,13.33c-1.73,1.25-3.19,4.3-6.12,2.34c-2.93-1.96-0.82-4.4-0.18-6.52
	c2.21-7.34,4.55-14.65,6.93-21.93c1.58-4.82,0.65-8.4-3.84-11.4c-6.06-4.04-11.76-8.62-17.54-13.05c-1.68-1.29-4.35-2.31-3.57-5.06
	c0.83-2.92,3.61-1.95,5.7-2.01C66.15,210.15,69.8,210.23,73.45,210.23z"/>
</svg>
