<?xml version="1.0" encoding="utf-8"?>
<!-- Generator: Adobe Illustrator 27.0.0, SVG Export Plug-In . SVG Version: 6.00 Build 0)  -->
<svg version="1.1" id="Layer_1" xmlns="http://www.w3.org/2000/svg" xmlns:xlink="http://www.w3.org/1999/xlink" x="0px" y="0px"
	 viewBox="0 0 1097.61 438.24" style="enable-background:new 0 0 1097.61 438.24;" xml:space="preserve">
<style type="text/css">
	.st0{fill:#189D59;}
	.st1{fill:#577EBF;}
	.st2{fill:#DC4637;}
	.st3{fill:#197F47;}
	.st4{fill:#F2B41F;}
	.st5{fill:#C0902E;}
	.st6{fill:#F5C233;}
	.st7{fill:#E8732A;}
	.st8{fill:#E02A3D;}
	.st9{fill:#4DB965;}
	.st10{fill:#FDFCFC;}
	.st11{fill:#8D8D8C;}
</style>
<path class="st0" d="M349.48,80.42c14.55-8.85,24.66-22.52,36.62-34.14c5.61-5.45,10.08-8.04,14.83-0.6
	c4.13,6.45,18.12,8.85,7.95,21.72c-10.99,13.91-24.88,25.8-31.74,42.8c-12,10.36-20.63,23.55-30.26,35.91
	c-40.41,47.22-79.13,95.8-116.82,145.2c-6.47-0.86-9.66-6.23-13.72-10.23c-22.45-22.1-44.78-44.33-67.11-66.55
	c-16.68-16.59-16.11-16.18-1.86-34.08c7.21-9.06,12.39-10.82,22.5-3.69c14.21,10.02,30.14,17.57,44.97,26.76
	c5.22,3.24,8.74,4.29,13.51-0.67c29.43-30.63,61.77-58.4,89.35-90.85C328.31,101.46,338.89,90.94,349.48,80.42z"/>
<path class="st1" d="M226.72,404.82c-53.08,3.84-96.52-17.45-132.6-53.93c-35.32-35.71-54.3-79.15-52.45-130.37
	c14.61,0.01,29.23,0.02,43.84,0.03c0.57,30.42,8.64,58.46,26.67,83.27c28.4,39.09,68.19,56.45,115.15,60.02
	C227.13,377.5,226.93,391.16,226.72,404.82z"/>
<path class="st2" d="M85.51,220.56c-14.61-0.01-29.23-0.02-43.84-0.03c-4.58-73.84,57-157.95,129-175.55
	c17.14-4.19,34.86-4.64,52.48-5.08c6.63,13.13,5.35,26.33,0.32,39.55C152.14,83.62,86.73,137.75,85.51,220.56z"/>
<path class="st3" d="M415.34,221.03c-2.92,70.07-31.89,124.94-93.88,160.51c-15.6-5.99-23.88-20.24-35.13-31.14
	c0.52-1.12,1.04-2.23,1.56-3.35c6.96,0.46,12.11-3.69,17.36-7.18c42.38-28.16,62.69-68.62,65.8-118.57
	C385.81,221.21,400.57,221.12,415.34,221.03z"/>
<path class="st4" d="M223.47,79.45c5.03-13.23,6.31-26.42-0.32-39.55c21.79,0.19,97.44,15.64,126.33,40.52
	c-10.59,10.52-21.17,21.04-31.76,31.56C290.11,90.12,258.29,80.45,223.47,79.45z"/>
<path class="st5" d="M415.34,221.03c-14.76,0.09-29.53,0.18-44.3,0.26c-3.19-26.63-7.83-52.78-24.14-75.2
	c9.62-12.36,18.25-25.55,30.25-35.91C403.06,142.6,414.01,180.16,415.34,221.03z"/>
<path class="st0" d="M286.32,350.4c11.26,10.89,19.53,25.14,35.13,31.14c-29.23,17.29-53.61,21.46-94.73,23.29
	c0.2-13.66,0.41-27.32,0.61-40.98C247.53,361.72,267.49,358.55,286.32,350.4z"/>
<path class="st1" d="M533.74,80.64c24.06-0.03,28.33,6.68,18.21,28.61c-10.64,23.04-42.38,31.76-66.57,18.29
	c-24.98-13.91-32.89-45.99-17.11-69.44c15-22.3,48.62-29.54,67.96-14.56c2.48,1.92,7,3.39,4.22,7.82c-1.86,2.97-4.86,5.2-8.88,3.41
	c-3.2-1.42-6.19-3.38-9.48-4.49c-17.59-5.94-36.52,1.71-44.67,17.87c-8.23,16.31-3.42,36.25,11.27,46.72
	c14.46,10.31,34.9,8.97,46.48-3.24c4.01-4.23,8.89-9.04,6.09-15.23c-2.29-5.07-8.31-2.16-12.67-2.65c-3.46-0.39-7-0.18-10.51-0.13
	c-5.06,0.07-7.53-2.16-7.22-7.4c0.28-4.68,3.24-5.59,7.11-5.57C523.23,80.69,528.49,80.66,533.74,80.64z"/>
<path class="st1" d="M763.16,107.14c0,9.33,0.78,18.75-0.2,27.98c-1.22,11.53-6.12,21.45-18.25,25.37
	c-11.9,3.85-23.14,2.58-32.36-6.59c-2.52-2.51-7.41-5.78-3.26-9.95c2.94-2.95,6.97-2.39,10.85,0.85
	c10.72,8.94,20.99,9.61,28.95-3.74c1.76-2.95,2.99-6.73,0.3-9.75c-2.57-2.88-5.26,0.21-7.87,0.83c-14.05,3.3-25.73-0.61-33.48-12.75
	c-7.64-11.97-7.18-24.56,1.65-35.85c8.81-11.26,20.34-15.19,34.13-9.58c2.71,1.1,5.1,2.71,8.15,1.17
	c10.61-5.34,11.74,0.95,11.53,9.27c-0.19,7.58-0.04,15.17-0.04,22.75C763.23,107.14,763.19,107.14,763.16,107.14z M733.37,83.17
	c-12.33,0.91-18.02,8.89-17.8,19.7c0.24,11.76,6.9,20.1,19.9,19.15c12.03-0.88,17.19-9.39,16.61-20.47
	C751.5,90.43,745.62,83.12,733.37,83.17z"/>
<path class="st6" d="M663.58,133.44c-18.4-0.06-30.71-12.27-30.81-30.56c-0.1-18.26,14-32.43,31.83-31.98
	c16.88,0.43,31.32,14.71,31.55,31.21C696.39,120.05,682.4,133.51,663.58,133.44z M682.81,101.94c-1.43-10.02-5.58-18.16-17.9-18.67
	c-13.26-0.54-19.57,8.06-19.58,19.24c-0.01,11.14,6.29,19.99,19.45,19.44C676.75,121.44,681.62,113.68,682.81,101.94z"/>
<path class="st7" d="M702.07,290.28c21.64,3.14,32.67-4.86,35.23-26.68c4.51,18.94,12.71,30.56,34.47,25.05
	c-12.7,11.7-27.88,21.51-13.68,41.09c-6.48-3.88-12.55-9.44-19.57-11.19c-7.69-1.92-11.62,8.98-22.4,9.51
	C725.19,311.2,722.52,297.95,702.07,290.28z"/>
<path class="st7" d="M692.88,290.56c-18.34,9.22-26.59,20.99-13.09,40.84c-14.96-14.55-28.21-17.18-43.24-1.39
	c7.03-18.39,4.6-31.34-15.05-39.89c22.25,3.82,32.37-6.02,33.4-28.07C667.81,287.42,667.81,287.42,692.88,290.56z"/>
<path class="st8" d="M809.21,111.98c7.78,11.94,17.11,13.13,27.06,6.96c4.67-2.89,8.65-4.59,11.78-0.15
	c4.04,5.71-2.42,7.89-5.61,10.08c-12.81,8.79-33.48,4.76-42.23-7.78c-9.76-13.99-6.93-34.51,6.08-44.07
	c12.71-9.35,31.06-6.29,40.37,6.44c5.34,7.3,5.66,11.8-4.53,14.96C831.67,101.67,821.76,106.72,809.21,111.98z M807.9,101.79
	c10.83-4.86,20.79-6.17,28.43-13.22C820.11,78.85,812.9,81.77,807.9,101.79z"/>
<path class="st7" d="M853.06,288.52c-19.37,18.97-19.37,18.97-12.32,43.99c-14.84-15.09-28.19-18.81-43.03-2.42
	c8.26-19.01,5.47-32.26-14.82-40.08c19.41,0.69,33.85-2.66,32.86-26.8C832.01,288.06,832.01,288.06,853.06,288.52z"/>
<path class="st7" d="M611.3,289.6c-20.24,9.99-23.48,22.8-12.92,40.98c-14.13-11.2-27.21-18.15-42.7-0.32
	c7.65-18.92,5.36-32.38-15.25-39.96c22.54,3.1,32.91-5.81,34.84-27.21C580.35,280.64,586.88,295.37,611.3,289.6z"/>
<path class="st8" d="M623.31,102.59c-0.52,20.84-10.75,31-30.8,30.58c-18.84-0.39-30.99-13.51-30.14-32.52
	c0.79-17.52,14.1-29.54,32.17-29.05C613.02,72.1,623.78,83.69,623.31,102.59z M612.44,101.82c-1.24-11.28-6.58-18.7-18.73-18.63
	c-13.04,0.07-19.25,8.41-19.03,20.18c0.2,11.05,6.71,18.75,18.72,18.72C606.36,122.04,611.74,114,612.44,101.82z"/>
<path class="st7" d="M530.73,289.68c-20.56,9.7-23.52,22.59-13.18,40.77c-15.02-11.78-29.05-18.67-44.96,0.81
	c11.35-19.54,6.83-31.26-11.51-40.83c22.03,3.01,31.42-7.15,33.51-27.64C499.11,281.31,506.59,294.81,530.73,289.68z"/>
<path class="st9" d="M787.51,85.31c0,12.24,0.06,24.48-0.03,36.73c-0.03,4.54,0.8,9.81-6.24,10.19c-8.25,0.45-7.49-5.48-7.5-10.69
	c-0.05-24.48-0.02-48.97-0.01-73.45c0-4.89,0.17-9.54,7.11-9.32c6.96,0.22,6.65,5.1,6.66,9.82
	C787.53,60.83,787.51,73.07,787.51,85.31z"/>
<path class="st10" d="M286.32,350.4c-18.83,8.14-38.79,11.32-58.99,13.44c-46.97-3.56-86.75-20.92-115.15-60.02
	c-18.03-24.82-26.1-52.86-26.67-83.27c1.21-82.81,66.62-136.94,137.95-141.1c34.82,1,66.64,10.67,94.25,32.52
	c-27.58,32.45-59.92,60.23-89.35,90.86c-4.77,4.96-8.29,3.91-13.51,0.67c-14.83-9.19-30.76-16.74-44.97-26.76
	c-10.11-7.13-15.29-5.37-22.5,3.69c-14.25,17.9-14.82,17.49,1.86,34.08c22.33,22.22,44.66,44.45,67.11,66.55
	c4.06,4,7.25,9.37,13.72,10.23c17.86,20.04,35.59,40.21,57.8,55.75C287.36,348.17,286.84,349.29,286.32,350.4z"/>
<path class="st11" d="M287.88,347.05c-22.21-15.54-39.94-35.71-57.8-55.75c37.69-49.4,76.4-97.98,116.82-145.2
	c16.31,22.41,20.95,48.57,24.14,75.2c-3.11,49.96-23.42,90.42-65.8,118.58C299.99,343.36,294.84,347.51,287.88,347.05z"/>
<g>
	<path class="st10" d="M807.94,202.85c0-7.39,0.32-14.79-0.11-22.16c-0.32-5.38,1.77-6.95,6.79-6.52c6.1,0.52,12.3-0.64,18.36,1.02
		c6.55,1.8,10.93,5.73,11.72,12.65c0.76,6.61-1.25,12.63-7.37,15.64c-5.21,2.56-3.97,4.77-1.34,8.13c3.18,4.07,6.19,8.28,9.03,12.59
		c1.15,1.75,4.62,3.84,1.68,5.89c-2.26,1.58-5.89,1.12-8.02-1.58c-2.74-3.48-5.21-7.17-7.8-10.76c-1.44-1.99-3.09-3.87-4.28-6
		c-1.84-3.3-4.53-4.48-8.02-3.64c-4.22,1.02-2.75,4.65-2.89,7.35c-0.21,3.93-0.13,7.88-0.04,11.82c0.06,2.77-1.04,4.07-3.9,4.03
		c-2.83-0.03-3.9-1.34-3.87-4.1c0.08-8.13,0.03-16.25,0.03-24.38C807.93,202.85,807.93,202.85,807.94,202.85z M815.53,190.86
		c0.71,4.53-2.58,10.98,6.71,10.48c9.97-0.54,14.29-3.32,14.13-10.86c-0.14-6.72-4.7-9.63-14.29-10.14
		C812.75,179.84,816.42,186.63,815.53,190.86z"/>
	<path class="st10" d="M660.19,209.83c0.01-5.16,0.03-10.33,0-15.49c-0.02-3.5,2.33-4.87,4.65-3.12c3.18,2.4,5.19,1.54,8.35,0.13
		c4.35-1.94,9.39-2.19,12.68,2.36c2.13,2.94,3.31,2.29,5.58,0.21c4.61-4.22,10.24-4.69,15.85-2.47c5.97,2.37,6.92,8.02,7.23,13.45
		c0.39,6.86,0.06,13.76,0.15,20.65c0.04,3.13-0.61,5.22-4.42,5.13c-3.59-0.09-3.79-2.28-3.78-4.94c0.03-6.88,0.05-13.77-0.03-20.65
		c-0.05-4.58-1.3-8.6-6.84-8.59c-5.71,0-8.38,3.41-8.41,8.97c-0.04,6.88-0.02,13.77,0.01,20.65c0.01,2.4-0.26,4.37-3.41,4.52
		c-3.44,0.17-4.12-1.7-4.1-4.58c0.05-6.64,0.14-13.28-0.09-19.91c-0.17-4.94-1.38-9.87-7.65-9.59c-5.71,0.26-8.68,3.64-8.38,9.81
		c0.32,6.62,0.14,13.27,0.04,19.91c-0.03,1.98,0.9,4.74-2.85,4.66c-3.29-0.07-4.83-1.3-4.65-4.88
		C660.37,220.65,660.18,215.24,660.19,209.83z"/>
	<path class="st10" d="M1011.62,201.16c-3.17,9.37-5.84,16.91-8.23,24.54c-0.89,2.83-1.81,4.92-5.31,4.98
		c-3.59,0.06-4.42-2.15-5.28-4.94c-3.03-9.87-6.25-19.68-9.36-29.53c-0.62-1.96-2.31-4.43,1.11-5.38c3.01-0.84,5.26,0.29,6.2,3.54
		c2.37,8.26,4.81,16.49,7.77,26.66c2.94-9.11,5.28-16.68,7.85-24.17c0.96-2.8,1-6.69,5.72-6.33c4.15,0.31,3.95,3.68,4.82,6.39
		c2.42,7.47,4.89,14.93,7.76,23.63c2.8-9.03,5.46-16.82,7.56-24.76c0.98-3.71,2.55-6.17,6.42-5.02c4.66,1.38,1.05,4.32,0.45,6.35
		c-2.97,9.89-6.18,19.71-9.34,29.55c-0.66,2.05-1,4.51-4.01,4.52c-3.15,0.01-4.92-1.67-5.86-4.6
		C1017.38,218.69,1014.77,210.81,1011.62,201.16z"/>
	<path class="st10" d="M491.54,231.76c-15.01,0.12-25.3-9.16-27.24-24.6c-2.96-23.53,17-40.01,38.05-31.4
		c1.58,0.65,3.03,1.62,4.56,2.4c2.39,1.22,3.28,2.96,1.74,5.38c-1.48,2.31-3.15,2.16-5.62,0.97c-10.66-5.11-18.36-4.45-24.47,1.68
		c-6.37,6.39-8.06,17.69-4.03,26.89c4.75,10.83,17.18,14.57,28,8.18c2.71-1.6,5.14-3.68,7.27,0.14c2.04,3.64-1.66,4.63-3.62,5.93
		C501.79,230.22,496.86,231.72,491.54,231.76z"/>
	<path class="st10" d="M652.85,211.49c-0.19,12.29-8.16,20.5-19.65,20.24c-11.26-0.25-18.87-8.87-18.74-21.25
		c0.13-13.11,7.37-20.34,20.12-20.09C646.36,190.62,653.04,198.34,652.85,211.49z M645.26,210.98c0.13-8.91-4-14.34-11.08-14.58
		c-7.5-0.25-11.89,4.96-12.09,14.39c-0.18,8.36,4.5,14.63,11.16,14.93C640.25,226.03,645.13,220.04,645.26,210.98z"/>
	<path class="st10" d="M549.12,210.51c0,5.41-0.01,10.83,0,16.24c0.01,4.11-3.52,5.15-5.27,3.26c-3.53-3.81-5.86-1.19-8.78,0.08
		c-9.56,4.15-18.39-0.45-19.46-10.91c-0.85-8.28-0.22-16.71-0.31-25.07c-0.03-2.48,1.08-3.51,3.52-3.6
		c2.78-0.11,4.09,0.97,4.06,3.83c-0.06,6.4-0.13,12.8,0.03,19.19c0.14,5.52,0.17,11.35,8.11,11.38c6.94,0.03,9.86-3.32,9.89-11.33
		c0.03-6.15,0.08-12.3-0.02-18.45c-0.05-2.93,0.69-4.57,4.09-4.59c3.33-0.02,4.29,1.5,4.25,4.47c-0.07,5.17-0.02,10.33-0.02,15.5
		C549.17,210.51,549.14,210.51,549.12,210.51z"/>
	<path class="st10" d="M965.03,211.23c-1.72,0-3.48-0.23-5.16,0.06c-2.67,0.46-6.99-1.77-7.66,1.75c-0.71,3.7,1.22,7.87,4.95,10.05
		c4.8,2.81,9.84,2.8,14.69-0.05c2.15-1.26,4.24-1.91,5.71,0.62c1.63,2.81-0.86,3.9-2.68,5.05c-7.21,4.52-18,3.76-24.23-1.63
		c-6.76-5.85-8.64-18.07-4.2-27.33c3.33-6.97,10.93-10.48,19.94-9.21c7.92,1.11,14,9.08,13.25,16.97c-0.28,2.92-1.69,3.77-4.28,3.73
		C971.92,211.19,968.48,211.23,965.03,211.23z M962.45,207.29c2.47-3.16,9.04,3.33,9.53-3.96c0.34-5.16-4.42-7.74-9.1-7.62
		c-4.82,0.13-10.05,2.51-9.81,7.97C953.32,209.46,959.05,205.22,962.45,207.29z"/>
	<path class="st10" d="M869.13,211.23c-1.23,0-2.54-0.27-3.68,0.05c-2.88,0.81-7.88-2.51-8.33,2.66c-0.46,5.23,2.68,9.52,8.23,10.71
		c3.85,0.83,7.88,0.76,11.43-1.51c2.08-1.33,4.11-2.1,5.72,0.42c1.94,3.02-0.91,3.82-2.65,4.88c-9.48,5.73-21.38,3.74-27.13-4.46
		c-6.34-9.03-5.04-22.97,2.77-29.65c10-8.56,24.93-4.04,28.22,8.54c1.81,6.94,0.86,8.19-6.44,8.34
		C874.55,211.27,871.84,211.23,869.13,211.23z M867.64,207.19c2.65-2.57,8.68,2.58,9.29-3.17c0.53-4.99-3.78-8-9.33-7.94
		c-5.53,0.06-11.41,4.15-10.27,8.04C858.91,209.53,864.04,205.17,867.64,207.19z"/>
	<path class="st10" d="M741.51,211.22c-2.21,0.01-4.42-0.01-6.64,0.01c-7.05,0.08-8.14,1.93-4.78,8.14
		c3.21,5.93,9.63,7.6,17.27,4.27c2.45-1.07,5.07-3.5,6.81,0.18c1.74,3.68-2.17,4.46-4.26,5.56c-7.8,4.09-17.53,2.73-23.33-2.91
		c-6.15-5.99-7.92-17.81-3.91-26.13c3.72-7.73,9.95-10.89,19.5-9.88c7.76,0.82,14.31,8.59,14.02,16.36
		c-0.11,3.04-1.16,4.55-4.36,4.43C748.4,211.12,744.95,211.22,741.51,211.22z M738.49,206.66c1.23,0,2.51,0.22,3.67-0.05
		c2.31-0.53,6.05,1.79,6.6-2.38c0.46-3.51-1.99-6.04-5.04-7.41c-2.75-1.24-5.88-1.19-8.65-0.07c-3.37,1.36-6.29,4.31-5.96,7.71
		c0.42,4.37,4.75,1.3,7.19,2.17C736.94,206.86,737.75,206.66,738.49,206.66z"/>
	<path class="st10" d="M592.44,210.98c-1.68-4.42,3.82-11.82-5.08-14.9c-1.51-0.52-1.22-3.63,1.04-3.83
		c5.94-0.51,4.97-4.87,5.54-8.64c0.37-2.48,0.12-6.15,4.12-5.67c3.49,0.42,2.79,3.72,2.52,5.97c-0.65,5.45,1.32,7.89,6.93,7.21
		c2.22-0.27,3.87,0.5,3.92,3.16c0.05,2.79-1.8,3.4-3.91,3.09c-6.6-0.96-7.24,2.91-6.93,7.98c0.22,3.68-0.05,7.39,0.04,11.08
		c0.11,4.85-0.24,10.15,7.55,7.52c2-0.68,3.16,1.14,3.72,2.81c0.8,2.4-1.32,2.79-2.81,3.49c-8.56,4.03-15.96-0.24-16.61-9.66
		C592.27,217.65,592.44,214.68,592.44,210.98z"/>
	<path class="st10" d="M905.4,220.45c3.51-8.89,6.46-16.4,9.43-23.91c0.63-1.6,1.02-3.42,2.05-4.71c1.59-1.99,4.21-1.78,6.17-1.02
		c2.56,0.98,0.57,3,0.05,4.32c-4.04,10.31-8.29,20.53-12.35,30.84c-1.05,2.67-1.91,4.74-5.53,4.7c-3.69-0.04-4.47-2.5-5.47-4.96
		c-3.9-9.57-7.82-19.13-11.49-28.79c-0.71-1.87-3.78-4.59-0.02-6.11c2.93-1.18,5.66-0.14,6.99,3.45
		C898.31,202.55,901.62,210.75,905.4,220.45z"/>
	<path class="st10" d="M1059.57,190.36c0.7,0.06,2.29-0.14,3.61,0.37c2.77,1.06,7.59,1.3,6.7,5.13c-1,4.3-4.8,1.05-7.46,0.74
		c-2.18-0.25-4.41-0.26-6.61-0.13c-2.24,0.14-3.56,1.61-4,3.73c-0.45,2.17,0.33,3.98,2.37,4.89c3.59,1.6,7.28,2.96,10.89,4.52
		c3.93,1.7,6.41,4.45,6.29,9.04c-0.12,4.44-1.34,8.2-5.53,10.51c-6.07,3.34-12.2,3.56-18.36,0.4c-1.82-0.94-4.77-1.62-3.42-4.61
		c1.14-2.55,3.56-2.23,5.73-1.15c2.44,1.21,4.85,2.51,7.7,2.09c3.09-0.45,5.77-1.56,6.4-5.09c0.6-3.39-1.61-4.9-4.29-5.96
		c-1.6-0.63-3.25-1.14-4.87-1.7c-6.02-2.08-11.96-4.29-10.54-12.54C1045.46,193.24,1049.78,190.27,1059.57,190.36z"/>
	<path class="st10" d="M568.19,232.06c-2.73-0.81-5.85-1.53-8.8-2.68c-1.91-0.75-4.69-1.64-3.03-4.67c1.39-2.55,3.66-1.93,5.78-0.81
		c2.42,1.28,4.88,2.44,7.72,1.95c3.06-0.53,5.77-1.6,6.27-5.21c0.48-3.43-1.88-4.85-4.5-5.87c-2.74-1.07-5.62-1.81-8.36-2.91
		c-4.25-1.71-6.59-4.76-6.77-9.57c-0.19-5.14,2.26-8.7,6.56-10.58c5.66-2.47,11.54-2.1,17.07,0.9c1.22,0.66,2.97,1.29,2.3,3.2
		c-0.67,1.9-2.34,2.58-4.2,2.02c-2.59-0.78-5.1-1.81-7.89-1.63c-2.86,0.19-5.58,0.87-6.29,4.04c-0.75,3.36,1.71,4.86,4.36,5.9
		c2.06,0.81,4.17,1.48,6.29,2.11c5.79,1.71,9.87,5.14,9.22,11.55c-0.6,5.9-4.13,9.87-10.28,11.02
		C571.99,231.15,570.33,231.58,568.19,232.06z"/>
	<path class="st10" d="M770.41,195.88c3.34-2.72,6.01-6.3,10.89-5.55c2.03,0.31,4.11,0.27,4.01,3.09c-0.08,2.33-0.59,4-3.59,4.54
		c-10.32,1.86-11.82,3.87-11.89,14.55c-0.03,4.67-0.05,9.35,0.03,14.02c0.04,2.68-0.92,4.11-3.8,4.14
		c-2.97,0.03-3.77-1.59-3.76-4.18c0.03-9.84-0.08-19.68,0.09-29.51c0.04-2.12-1.58-5.27,2.03-6.16
		C768.26,189.85,769.13,193.11,770.41,195.88z"/>
	<path class="st10" d="M929.46,210.75c-0.01-5.14,0.03-10.27-0.03-15.41c-0.03-2.75,0.37-4.82,3.9-4.72
		c3.02,0.09,3.31,1.81,3.66,4.28c1.53,10.7-0.44,21.46,0.64,32.15c0.26,2.62-0.92,4.17-3.75,4.25c-3.07,0.08-4.48-1.32-4.44-4.41
		C929.52,221.51,929.47,216.13,929.46,210.75z"/>
	<path class="st10" d="M938.33,178.22c0.02,3.33-1.69,5.03-4.96,5.03c-3.16,0-5.31-1.44-5.15-4.84c0.14-3.08,1.96-5.14,5.1-5.28
		C936.6,172.98,938.14,175.05,938.33,178.22z"/>
</g>
</svg>
